<svg width="505" height="41" viewBox="0 0 505 41" fill="none" xmlns="http://www.w3.org/2000/svg">
<path d="M133.1 39.8C128.6 39.8 123.9 38.8 120.6 37.3L122.1 30.6C125.6 31.7 129.2 32.5 133.2 32.5C137.7 32.5 138.5 31.6 138.5 28.4C138.5 24.9 138.3 24.5 132 23.1C122.7 21 121.3 19.2 121.3 10.8C121.4 3 124.1 0 134.7 0C138.1 0 142.1 0.4 146.4 1.3L145.5 8.6C141.1 7.8 138.3 7.5 134.8 7.5C130.9 7.5 130 8.2 130 11C130 14.7 130.2 14.8 136.2 16.2C146.6 18.7 147.1 20.7 147.1 28.3C147.2 36 144.7 39.8 133.1 39.8Z" fill="#3F4B54"/>
<path d="M170.9 39.2999V23.7999H158.4V39.2999H149.7L149.8 0.699951H158.5V16.1H171V0.699951H179.7L179.6 39.2999H170.9Z" fill="#3F4B54"/>
<path d="M183.4 39.2999L183.5 0.699951L207.8 0.799951V8.49995H192.2V15.6H206.6V23.2999H192.2V31.7H207.8V39.4L183.4 39.2999Z" fill="#3F4B54"/>
<path d="M244.2 39.5H235.2L233.1 32H220.2L218.1 39.5H209.1L221 0.900024H232.6L244.2 39.5ZM222.1 24.6H231L226.6 8.40002L222.1 24.6Z" fill="#3F4B54"/>
<path d="M259.7 27.5H254.6V39.5H245.9L246 0.800049H262.1C271.5 0.800049 275 4.50005 274.9 11.8V16.6C274.9 21.4 273.1 24.7 269.3 26.3L278.6 39.5H268.3L259.7 27.5ZM266.2 12.7C266.2 9.80005 265.1 8.60005 261.6 8.60005H254.7V20H261.6C265.3 20 266.2 18.7 266.2 15.8V12.7Z" fill="#3F4B54"/>
<path d="M286.8 26.9C286.8 30.3 287.9 32.2001 292.2 32.2001C295 32.2001 298.8 31.9 302.2 31.3L303.4 38.9001C299.6 39.7001 296.1 40.1 292.2 40.1C282.5 40.1 278.1 35.3001 278.1 28.2001V12.1C278.1 5.10005 282.5 0.300049 292.2 0.300049C296.1 0.300049 299.6 0.700049 303.4 1.50005L302.2 9.10005C298.8 8.50005 295 8.20005 292.2 8.10005C287.9 8.10005 286.8 10.1 286.8 13.4V26.9Z" fill="#3F4B54"/>
<path d="M334.5 28.4C334.5 34.3 330.4 40.2 319.5 40.2C308.6 40.2 304.6 34.2 304.6 28.3V12.2C304.6 6.30002 308.7 0.400024 319.6 0.400024C330.5 0.400024 334.5 6.40002 334.5 12.3V28.4ZM325.9 13C325.9 10 324 8.10002 319.7 8.10002C315.4 8.10002 313.4 9.90002 313.4 13V27.6C313.4 30.6 315.3 32.5 319.6 32.5C323.9 32.5 325.9 30.7 325.9 27.6V13Z" fill="#3F4B54"/>
<path d="M364.6 39.7H353.6L346.1 18.1L346 39.7H337.5L337.6 1.09998H348.4L359.1 32L369.9 1.09998H380.7L380.6 39.7H372.1L372.2 18.1L364.6 39.7Z" fill="#3F4B54"/>
<path d="M384.4 39.7999L384.5 1.19995L409 1.29995V8.99995H393.2V17.2H407.8V24.9H393.2V39.9L384.4 39.7999Z" fill="#3F4B54"/>
<path d="M440.6 28.7C440.6 34.6 436.5 40.5 425.6 40.5C414.7 40.5 410.7 34.5 410.7 28.6V12.5C410.7 6.59995 414.8 0.699951 425.7 0.699951C436.6 0.699951 440.6 6.69995 440.6 12.6V28.7ZM431.9 13.3C431.9 10.3 430 8.39995 425.7 8.39995C421.4 8.39995 419.4 10.2 419.4 13.3V27.9C419.4 30.9 421.3 32.7999 425.6 32.7999C429.9 32.7999 431.9 30.9999 431.9 27.9V13.3Z" fill="#3F4B54"/>
<path d="M457.5 28H452.4V40H443.7L443.8 1.40002H459.9C469.3 1.40002 472.8 5.10002 472.7 12.4V17.2C472.7 22 470.9 25.3 467.1 26.9L476.4 40.1L466 40L457.5 28ZM464 13.1C464 10.2 462.9 9.00002 459.4 9.00002H452.5V20.4H459.4C463.1 20.4 464 19.1 464 16.2V13.1Z" fill="#3F4B54"/>
<path d="M493.9 9.2L493.8 40.1H485.1L485.2 9.2H474.8V1.5L504.2 1.6V9.3L493.9 9.2Z" fill="#3F4B54"/>
<path d="M75.6 10.7H99.7L106.1 0.800049H34.1C29 0.800049 24.5 1.90005 20.8 6.50005C15.8 13 13.3 17.4 13.3 19.6C13.3 19.6 13.3 20 13.4 20.4C13.5 20.9 13.8 21.3 13.8 21.3C14.8 23 17 23.9 20.3 23.9H37.5C35.7 27.6 32.5 29.5 27.8 29.5H6.2L0 39.3H27.9C30 39.3 32.4 38.9 35.1 38C38.1 37 40.8 35.7 44 31.3C44.7 30.2 45.4 29.2 46.1 28.1C48.4 24.6 49.6 22.1 49.6 20.6C49.6 20.6 49.6 20.2 49.5 19.8C49.4 19.3 49.1 18.9 49.1 18.9C48.1 17.2 46 16.4 42.6 16.4H36.5H24.9L25 16.3C27.8 12.5 29.8 10.7 32.9 10.8H60.4L52 23.8C48.8 28.7 47.2 32.2001 47.2 34.2001C47.3 35.2001 47.4 35.8 47.6 36.1C48.4 38.3 50.5 39.4001 53.8 39.4001H81.5L87.7 29.8H63.9C62.5 29.8 61.4 29.1001 61.6 27.7001C61.6 26.5001 62.7 24.7 65.5 20.4C69.1 14.4 71.8 10.7 75.6 10.7Z" fill="#D8001D"/>
</svg>
