<svg width="138" height="50" viewBox="0 0 138 50" fill="none" xmlns="http://www.w3.org/2000/svg">
<g clip-path="url(#clip0_1382_2357)">
<path fill-rule="evenodd" clip-rule="evenodd" d="M44.0089 9.87071C44.0089 14.0067 40.6534 17.3593 36.5139 17.3593C32.3735 17.3593 29.018 14.0067 29.018 9.87071C29.018 5.73474 32.3735 2.38211 36.5139 2.38211C40.6534 2.38211 44.0089 5.73474 44.0089 9.87071Z" fill="#80A361"/>
<path fill-rule="evenodd" clip-rule="evenodd" d="M0.341034 1.23245C0.341034 1.23245 3.69567 17.5719 25.0807 16.5246C25.0807 16.5246 21.7261 -1.90965 0.341034 1.23245Z" fill="#80A361"/>
<path fill-rule="evenodd" clip-rule="evenodd" d="M28.0973 20.808C28.0973 20.808 39.9145 32.5904 27.2825 49.8632C27.2825 49.8632 13.7139 36.9299 28.0973 20.808Z" fill="#80A361"/>
<path fill-rule="evenodd" clip-rule="evenodd" d="M50.967 27.7413H45.0154L42.3737 33.7431H39.7592L47.5738 16.2378H49.3823L56.4182 33.7431H53.3867L50.967 27.7413ZM50.1611 25.7124L48.1304 20.6834L45.9057 25.7124H50.1611Z" fill="#482D24"/>
<path fill-rule="evenodd" clip-rule="evenodd" d="M70.4365 33.7432L64.2347 25.7406L61.6763 28.5748V33.7432H58.9784V15.9599H61.6763V25.2406L70.0195 15.9599H73.0782L66.0424 23.7397L73.7455 33.7432H70.4365Z" fill="#482D24"/>
<path fill-rule="evenodd" clip-rule="evenodd" d="M85.753 27.7413H79.8014L77.1596 33.7431H74.5451L82.3597 16.2378H84.1683L91.2042 33.7431H88.1726L85.753 27.7413ZM84.947 25.7124L82.9163 20.6834L80.6916 25.7124H84.947Z" fill="#482D24"/>
<path fill-rule="evenodd" clip-rule="evenodd" d="M91.7245 26.4632L91.7517 16.2377H94.4496L94.4215 26.1018C94.4215 29.7702 96.5075 31.7982 99.5944 31.7982C102.626 31.7982 104.657 29.7702 104.657 26.1018L104.629 16.2377H107.048L107.075 26.3246C107.075 31.2149 103.85 34.0211 99.4557 34.0211C94.9781 34.0211 91.7245 31.3535 91.7245 26.4632Z" fill="#482D24"/>
<path fill-rule="evenodd" clip-rule="evenodd" d="M124.709 33.7433H121.4L117.45 28.7696C115.559 26.4073 114.503 26.2687 112.945 26.2687V33.7433H110.247V16.3766C111.666 16.1547 113.779 15.9599 115.142 15.9599C119.843 15.9599 121.872 18.1547 121.872 20.7117C121.872 23.0178 120.343 24.7125 117.533 25.4906C118.312 25.9073 119.036 26.574 119.87 27.6301L124.709 33.7433ZM112.945 24.2397C116.978 24.4625 118.952 23.2125 118.952 21.0731C118.952 19.6555 118.118 18.1275 114.975 18.1275C114.419 18.1275 113.641 18.1827 112.945 18.2389V24.2397Z" fill="#482D24"/>
<path fill-rule="evenodd" clip-rule="evenodd" d="M137.689 31.5482L137.328 33.7429H126.509V16.2104H137.105L136.743 18.4052H129.207V23.5175H135.881L135.547 25.5745H129.207V31.5482H137.689Z" fill="#482D24"/>
</g>
<defs>
<clipPath id="clip0_1382_2357">
<rect width="137.838" height="50" fill="white" transform="translate(0.0810852)"/>
</clipPath>
</defs>
</svg>
