<svg xmlns="http://www.w3.org/2000/svg" width="1264" height="440" version="1.0" viewBox="0 0 948 330"><path d="M731.8 1.6c-28.1 4.3-50.4 18.1-62.6 38.4-6.3 10.6-9.8 29.6-8.2 44 2.9 25.8 16.5 44.2 48.5 65.7 3.3 2.2 18.8 11.6 34.5 20.8 45.4 26.8 58.1 35.4 70.1 47.6 7.1 7.3 13.4 18.2 16 27.4 2.3 8.2 1.8 26.5-1 35.5-6.1 20.2-20.6 33.8-42.1 39.7-4.9 1.3-10.2 1.8-21.5 1.8-17.2 0-25.7-1.8-37.8-8.2-7.5-4-19.6-14.6-25.2-22.3-5.5-7.5-12.2-21.4-16.1-33.3C683 248 679 228 679 221.4V218h-37.9l.5 3.8c8 58.7 40.7 94.8 96 105.9 11 2.2 39.2 2.4 50.4.4 22.2-3.9 41.9-13.8 54.7-27.3 13.8-14.7 20.3-32 20.3-54 0-15.9-3.4-28.4-11.1-41.5-4.7-7.9-21.4-24.5-32.9-32.5-8.9-6.3-15.5-10.3-64-39.1-36.3-21.5-50.2-33.2-57.8-48.7-5.1-10.2-6.6-17.8-5.9-28.5 1.8-24.5 17.2-42.1 42.2-48.1 9.4-2.3 27.8-2.3 36.5-.1 21.9 5.7 39.6 21.6 49.7 44.8 3.2 7.4 7.2 21.7 8.8 31.1l.6 3.8H865v-2.4c0-4-4.9-18.5-9.1-27-10.9-21.9-30.9-40.3-54-49.5C781.2.8 754.7-2 731.8 1.6zM.2 6.7c.2 1.2 2.1 2 7.3 2.9C18.2 11.4 22.7 13 27 16.7c4.7 4.1 5.4 5.3 7.7 13 1.5 5.2 1.7 15.6 2.3 95.8.7 97.4.7 96.6 6.6 120 8.5 33.7 27 57.2 53.9 68.4 14.2 6 26.6 8.2 48.5 8.8 22.3.6 33.3-.7 48.5-5.8 34-11.3 55.8-40.1 64-84.2 3.5-19.1 3.8-26.7 4.5-114.2.5-69.4.9-88.8 2-91.7 1.8-5.1 6.4-10.5 11.1-12.8 4.5-2.3 14.9-5 19.7-5 2.5 0 3.2-.4 3.2-2 0-2-.7-2-40.6-2-37.5 0-40.5.1-40.2 1.7.2 1.2 2.3 2 8.1 3 14.3 2.4 20.6 6.4 24.7 15.6 3.5 7.9 4.2 29.2 3.7 109.7-.5 74.9-.9 83.1-5.2 103-6.9 32.8-22.2 54.9-45.3 65.7-13.5 6.3-20.4 7.6-41.2 7.7-22 .1-29.6-1.3-42.8-7.9-23.9-12-37-34.4-43.8-74.6-1.6-9.3-1.8-20.3-2.1-100.5-.4-99.5-.4-101 5.5-108.4 3.8-4.8 12-8.7 21.7-10.3 5.7-.9 8-1.8 8-2.8 0-1.2-8-1.4-54.8-1.7C3.6 5-.1 5.1.2 6.7zM326.2 6.7c.2 1.2 2.1 2 7.3 2.9 8.6 1.4 14.3 4.2 19.5 9.5 4.6 4.7 7.3 9.4 55.9 95.5l36.1 64v51.5c0 30.3-.4 54.9-1.1 59.9-1.1 9.1-3.6 16-7.2 19.9-3.3 3.6-13.2 7.9-21.4 9.3-4.7.8-7.3 1.7-7.3 2.5 0 1.1 10.5 1.3 55.5 1.3 46.1 0 55.5-.2 55.5-1.4 0-.9-2.5-1.7-7.7-2.6-11.4-2-19-6.2-23-12.8-1.8-3.1-3.6-7.9-4.2-11.6-.7-4-1.1-26.2-1.1-62.1v-55.9l30.6-59.1c44.3-85.2 46-88.5 50.2-94 6-8 13-12 26.5-14.9 1.6-.4 2.7-1.2 2.4-1.9-.3-.9-8.8-1.2-35.3-1.2-30.4 0-34.9.2-34.9 1.5 0 1.1 1.6 1.7 5.7 2.1 8.7 1 14.6 2.9 17.8 5.9 4.2 3.9 4.1 10-.3 19.7-7.1 15.7-66 129.4-66.7 128.6-1.3-1.5-71-128-72.5-131.6-1.9-4.7-1.9-11.7.1-14.5 2.8-4 13.6-8.1 21.4-8.2 4.1 0 6.5-1.3 5.6-2.9-.5-.8-16-1.1-54.2-1.1-49.7 0-53.5.1-53.2 1.7zM302 305.5V323h35l-.2-17.3-.3-17.2-17.2-.3-17.3-.2v17.5zM581 305.5V323h34v-35h-34v17.5z"/></svg>