<svg xmlns:xlink="http://www.w3.org/1999/xlink" xmlns="http://www.w3.org/2000/svg" version="1.1" viewBox="0 0 129 22" height="22px" width="129px">
    <title>Logo</title>
    <defs>
        <polygon points="0 0 13.4287675 0 13.4287675 18.2127567 0 18.2127567" id="path-1"></polygon>
        <polygon points="0 0 11.700807 0 11.700807 13.6258979 0 13.6258979" id="path-3"></polygon>
    </defs>
    <g fill-rule="evenodd" fill="none" stroke-width="1" stroke="none" id="Color-Options">
        <g transform="translate(-47, -32)" id="Desktop_Circle_1">
            <g transform="translate(0, -58)" id="Navigation">
                <g transform="translate(47, 90)" id="Logo">
                    <path fill="#000000" id="Fill-1" d="M61.3745484,4.62345611 C60.497524,3.8191365 59.3935438,3.38819225 58.1533571,3.38819225 C56.5384793,3.38819225 54.9660939,4.32853892 54.3212956,5.6483468 C53.769882,4.45173634 52.6156684,3.38819225 50.4890694,3.38819225 C48.7546198,3.38819225 47.5816305,4.4313405 47.2469613,5.08663893 L47.2194565,5.08663893 L47.2194565,3.78722688 L43.9850892,3.78722688 L43.9850892,17.0140902 L47.3202525,17.0140902 L47.3202525,9.47108547 C47.3202525,8.00653295 47.8515729,6.52865734 49.6174801,6.52865734 C51.277815,6.52865734 51.7590667,7.88678966 51.7590667,9.15791071 L51.7590667,17.0140902 L55.1467691,17.0140902 L55.1467691,9.27419987 C55.1467691,7.37952551 56.3148175,6.51648564 57.4001867,6.51648564 C58.7874499,6.51648564 59.5832775,7.47920193 59.5832775,9.15791071 L59.5832775,17.0140902 L62.9563217,17.0140902 L62.9563217,8.75953401 C62.9563217,6.61698447 62.1767993,5.3591865 61.3745484,4.62345611"></path>
                    <path fill="#000000" id="Fill-3" d="M41.2865056,4.62345611 C40.4094812,3.8191365 39.305501,3.38819225 38.0653143,3.38819225 C36.4504365,3.38819225 34.8778864,4.32853892 34.2332528,5.6483468 C33.6818391,4.45173634 32.5276256,3.38819225 30.4010266,3.38819225 C28.666577,3.38819225 27.4935877,4.4313405 27.1589185,5.08663893 L27.1314137,5.08663893 L27.1314137,3.78722688 L23.8970464,3.78722688 L23.8970464,17.0140902 L27.2322097,17.0140902 L27.2322097,9.47108547 C27.2322097,8.00653295 27.7635301,6.52865734 29.5294373,6.52865734 C31.1897722,6.52865734 31.6710239,7.88678966 31.6710239,9.15791071 L31.6710239,17.0140902 L35.0587263,17.0140902 L35.0587263,9.27419987 C35.0587263,7.37952551 36.2267746,6.51648564 37.3121438,6.51648564 C38.6994071,6.51648564 39.4952347,7.47920193 39.4952347,9.15791071 L39.4952347,17.0140902 L42.8682789,17.0140902 L42.8682789,8.75953401 C42.8682789,6.61698447 42.0887565,5.3591865 41.2865056,4.62345611"></path>
                    <polygon points="11.9158386 0 0 0 0 3.21744292 4.12637936 3.21744292 4.12637936 17.0140737 7.76475432 17.0140737 7.76475432 3.21744292 11.9158386 3.21744292" fill="#000000" id="Fill-5"></polygon>
                    <g transform="translate(62.7251, 3.7872)" id="Group-9">
                        <mask fill="white" id="mask-2">
                            <use xlink:href="#path-1"></use>
                        </mask>
                        <g id="Clip-8"></g>
                        <polygon points="6.92808125 8.62431291 3.73653582 0 0 0 5.00439198 13.0408335 5.06977766 13.2145271 3.23601427 18.2128225 6.75498216 18.2128225 13.4287675 0 9.89612956 0" mask="url(#mask-2)" fill="#000000" id="Fill-7"></polygon>
                    </g>
                    <path fill="#000000" id="Fill-10" d="M85.2232391,0 L85.2232391,11.0849717 C85.2232391,12.801347 84.8177491,13.8731152 83.4044634,13.8731152 C82.5422619,13.8731152 81.8767115,13.4684881 81.1406698,12.8552972 L80.0212078,16.0105658 C80.8359758,16.7347824 82.3456108,17.3760998 83.7220038,17.3760998 C86.9557123,17.3760998 88.8036399,14.9424162 88.8036399,11.4578536 L88.8036399,0 L85.2232391,0 Z"></path>
                    <g transform="translate(117.2992, 3.3882)" id="Group-14">
                        <mask fill="white" id="mask-4">
                            <use xlink:href="#path-3"></use>
                        </mask>
                        <g id="Clip-13"></g>
                        <path mask="url(#mask-4)" fill="#000000" id="Fill-12" d="M6.54054351,0 C5.30101565,0 3.82662641,0.68309598 3.26648367,1.69680186 L3.23420258,1.69680186 L3.23420258,0.398870154 L0,0.398870154 L0,13.6258979 L3.33516333,13.6258979 L3.33516333,6.24425059 C3.33516333,3.78901974 4.95679385,3.14030061 5.81405435,3.14030061 C6.74493549,3.14030061 8.30678013,3.54344731 8.30678013,6.24425059 L8.30678013,13.6258979 L11.7009058,13.6258979 L11.7009058,5.6619824 C11.7009058,1.7718059 9.02602251,0 6.54054351,0"></path>
                    </g>
                    <path fill="#000000" id="Fill-15" d="M111.022696,3.38824159 C109.735734,3.38824159 108.408257,4.09255582 107.847126,5.05247591 L107.814845,5.05247591 L107.814845,6.5793015e-05 L104.482152,6.5793015e-05 L104.482152,17.0141395 L107.817315,17.0141395 L107.817315,9.63249218 C107.817315,7.17726134 109.438946,6.52854221 110.296206,6.52854221 C111.227088,6.52854221 112.788932,6.93168891 112.788932,9.63249218 L112.788932,17.0141395 L116.182893,17.0141395 L116.182893,9.050224 C116.182893,5.16004749 113.508175,3.38824159 111.022696,3.38824159"></path>
                    <path fill="#000000" id="Fill-17" d="M96.6979962,14.165927 C94.6565468,14.165927 93.0018117,12.4734017 93.0018117,10.3856248 C93.0018117,8.29784797 94.6565468,6.60532265 96.6979962,6.60532265 C98.7392808,6.60532265 100.394181,8.29784797 100.394181,10.3856248 C100.394181,12.4734017 98.7392808,14.165927 96.6979962,14.165927 M96.6979962,3.39528144 C92.8718638,3.39528144 89.7700796,6.52489069 89.7700796,10.3856248 C89.7700796,14.246359 92.8718638,17.3761327 96.6979962,17.3761327 C100.524128,17.3761327 103.625913,14.246359 103.625913,10.3856248 C103.625913,6.52489069 100.524128,3.39528144 96.6979962,3.39528144"></path>
                    <path fill="#000000" id="Fill-19" d="M16.0937689,14.165927 C14.0523195,14.165927 12.3975844,12.4734017 12.3975844,10.3856248 C12.3975844,8.29784797 14.0523195,6.60532265 16.0937689,6.60532265 C18.1352182,6.60532265 19.7899533,8.29784797 19.7899533,10.3856248 C19.7899533,12.4734017 18.1352182,14.165927 16.0937689,14.165927 M16.0937689,3.39528144 C12.2676366,3.39528144 9.16585232,6.52489069 9.16585232,10.3856248 C9.16585232,14.246359 12.2676366,17.3761327 16.0937689,17.3761327 C19.9199012,17.3761327 23.0216854,14.246359 23.0216854,10.3856248 C23.0216854,6.52489069 19.9199012,3.39528144 16.0937689,3.39528144"></path>
                </g>
            </g>
        </g>
    </g>
</svg>