<svg width="601" height="107" viewBox="0 0 601 107" fill="none" xmlns="http://www.w3.org/2000/svg">
<path d="M74.24 58.07C69.62 53.32 63.68 50.34 56.54 49.22C61.91 47.95 66.67 45.35 70.7 41.46C74.73 37.57 76.77 32.74 76.77 27.1C76.77 10.97 65.63 2.45 44.56 2.45H0V3.12H13.55V103.47H0V104.14H45.13C56.14 104.14 65 101.65 71.46 96.75C77.93 91.76 81.22 84.81 81.22 76.1C81.22 68.92 78.87 62.85 74.24 58.07ZM61.63 27.95C61.63 32.96 61.26 38.12 58.56 41.93C56.25 45.29 51.96 48.89 46.82 48.89H28.7V3.11H43.44C52.22 3.11 56.36 8.22 58.98 12.67C61.63 17.05 61.63 22.59 61.63 27.95ZM28.7 49.57H46.82C57.89 49.57 64.24 58.98 64.24 75.39C64.24 93.23 55.89 103.47 41.32 103.47H28.7V49.57Z" fill="white"/>
<path d="M129.24 0L95.34 103.46H81.02V104.13H116.49V103.46H96.03L108.24 66.29H136.43L150.24 103.46H131.42V104.13H179.32V103.46H167.75L129.24 0ZM108.47 65.63L121.51 25.89L136.2 65.63H108.47Z" fill="white"/>
<path d="M281.36 102.28C278.87 103.06 275.22 104.1 272.39 104.1C264.59 104.1 261.82 99.69 261.82 87.25V72.99C261.82 67.34 259.66 61.76 256.03 58.08C252.89 54.82 247.71 50.74 240.54 49.31C253.25 46.11 259.69 38.76 259.69 27.46C259.69 21.04 257.23 15.15 252.57 10.43C247.65 5.36001 238.84 2.45 228.41 2.45H185.54V3.12H199.09V103.47H185.54V104.14H227.79V103.47H214.24V49.57H229.82C235.75 49.57 240.27 51.35 242.91 54.71C245.68 58.16 246.67 65.28 246.67 70.8V87.32C246.67 93.88 249.21 99.15 253.63 101.78C257.71 104.16 261.88 105.27 266.73 105.27C271.91 105.27 276.76 104.5 281.56 102.93L281.78 102.86L281.57 102.21L281.36 102.28ZM214.24 3.12H227.28C233.22 3.12 238.11 6.13 240.7 11.39C243.26 16.45 244.56 22.28 244.56 28.72C244.56 35.68 243.92 39.63 242.18 43.31C240.42 46.96 236.93 48.9 232.08 48.9H214.24V3.12Z" fill="white"/>
<path d="M365.26 10.75C357.45 5.01 345.56 2.44 337.24 2.44H289.43V3.11H302.98V103.46H289.43V104.13H337.17C353.22 104.13 366.83 97.75 375.47 86.18C381.65 78.02 385.19 66.16 385.19 53.64C385.19 41.05 381.65 29.11 375.47 20.89C372.54 16.89 369.1 13.48 365.26 10.75ZM318.12 3.12H337.17C350.45 3.12 359.54 11 364.2 26.53C367.16 35.91 368.21 43 368.21 53.64C368.21 64.19 367.16 71.23 364.2 80.54C362.7 85.32 360.79 89.38 358.51 92.62C353.74 99.51 345.97 103.46 337.17 103.46H318.12V3.12Z" fill="white"/>
<path d="M446.41 0.470001C432.87 0.470001 420.39 6.15001 411.28 16.46C402.46 26.44 397.61 39.64 397.61 53.65C397.61 67.13 402.48 80.41 410.96 90.09C420.03 100.43 432.61 106.12 446.4 106.12C473.76 106.12 495.2 83.07 495.2 53.65C495.2 40.13 490.32 26.73 481.82 16.86C472.72 6.29 460.14 0.470001 446.41 0.470001ZM446.41 1.14C460.93 1.14 478.23 10.25 478.23 53.65C478.23 70.72 475.96 83.12 471.29 91.54C466.1 100.89 457.97 105.44 446.41 105.44C426.19 105.44 414.59 86.56 414.59 53.64C414.59 29.69 420.11 1.14 446.41 1.14Z" fill="white"/>
<path d="M598.38 2.45H505.6L503.89 40.96H504.56L504.57 40.75C505.6 25.07 507.95 16.09 512.43 10.71C516.85 5.39001 523.79 3.12 535.62 3.12H544.42V103.47H530.87V104.14H573.12V103.47H559.57V3.12H568.37C591.5 3.12 597.6 10.5 599.42 40.74L599.43 40.96H600.1L598.38 2.45Z" fill="white"/>
</svg>
